<?xml version="1.0" encoding="UTF-8" ?>
<!DOCTYPE svg PUBLIC "-//W3C//DTD SVG 1.1//EN" "http://www.w3.org/Graphics/SVG/1.1/DTD/svg11.dtd">
<svg width="128pt" height="128pt" viewBox="0 0 128 128" version="1.1" xmlns="http://www.w3.org/2000/svg">
<g id="#000000ff">
<path fill="#000000" opacity="1.00" d=" M 61.14 0.00 L 66.71 0.00 C 76.49 0.85 86.02 5.00 92.92 12.06 C 99.25 18.37 103.26 26.79 104.52 35.61 C 106.55 35.91 109.03 35.82 110.35 37.71 C 112.62 40.30 111.10 44.91 107.72 45.60 C 105.19 45.95 102.62 45.82 100.07 45.80 C 98.93 52.89 95.84 59.57 91.16 65.02 C 105.26 71.73 116.87 83.59 122.92 98.02 C 125.91 104.93 127.43 112.40 128.00 119.89 L 128.00 124.60 C 126.77 125.62 125.73 126.83 124.66 128.00 L 3.41 128.00 C 2.31 126.86 1.25 125.65 0.00 124.67 L 0.00 120.73 C 0.64 97.15 15.49 74.92 36.84 65.01 C 32.14 59.58 29.06 52.89 27.92 45.80 C 25.37 45.82 22.81 45.96 20.29 45.60 C 16.90 44.93 15.38 40.31 17.64 37.71 C 18.96 35.82 21.44 35.91 23.47 35.62 C 24.68 27.48 28.13 19.66 33.67 13.54 C 40.60 5.64 50.71 0.88 61.14 0.00 M 56.57 10.89 C 56.41 15.76 56.91 20.68 56.32 25.52 C 55.18 29.86 48.42 30.13 46.94 25.89 C 46.16 22.46 46.75 18.88 46.55 15.39 C 39.75 20.15 34.98 27.59 33.57 35.78 C 53.85 35.81 74.14 35.81 94.43 35.79 C 93.00 27.60 88.25 20.15 81.45 15.39 C 81.24 18.88 81.85 22.47 81.05 25.90 C 79.55 30.14 72.77 29.85 71.66 25.49 C 71.11 20.65 71.58 15.75 71.43 10.89 C 66.54 9.78 61.46 9.77 56.57 10.89 M 38.07 45.82 C 40.62 59.94 55.82 70.09 69.84 66.48 C 79.86 64.33 87.93 55.82 89.92 45.82 C 72.64 45.79 55.35 45.79 38.07 45.82 M 37.65 75.87 C 37.66 89.91 37.65 103.95 37.66 117.99 C 55.22 118.00 72.78 118.00 90.34 117.99 C 90.35 103.95 90.34 89.91 90.35 75.87 C 87.76 74.49 85.09 73.26 82.36 72.21 C 71.23 78.73 56.76 78.74 45.64 72.21 C 42.90 73.26 40.24 74.48 37.65 75.87 M 10.22 118.00 C 16.03 118.00 21.84 118.01 27.66 117.99 C 27.65 106.36 27.66 94.72 27.65 83.09 C 17.78 92.05 11.44 104.71 10.22 118.00 M 100.34 83.09 C 100.34 94.73 100.35 106.36 100.34 117.99 C 106.15 118.01 111.96 118.00 117.78 118.00 C 116.54 104.72 110.22 92.05 100.34 83.09 Z" />
</g>
</svg>
